<mxfile host="app.diagrams.net" agent="Mozilla/5.0 (Windows NT 10.0; Win64; x64) AppleWebKit/537.36 (KHTML, like Gecko) Chrome/133.0.0.0 Safari/537.36" version="26.1.0" pages="6">
  <diagram id="CDHPZJHsP48VwrkLaFTt" name="Pendahuluan 2.5">
    <mxGraphModel dx="1434" dy="784" grid="1" gridSize="10" guides="1" tooltips="1" connect="1" arrows="1" fold="1" page="1" pageScale="1" pageWidth="827" pageHeight="1169" math="0" shadow="0">
      <root>
        <mxCell id="0" />
        <mxCell id="1" parent="0" />
        <mxCell id="3jWl4t6Rtq9M0hummw_z-2" style="edgeStyle=orthogonalEdgeStyle;rounded=0;orthogonalLoop=1;jettySize=auto;html=1;exitX=0.5;exitY=1;exitDx=0;exitDy=0;exitPerimeter=0;" edge="1" parent="1" source="j-0Ay29s5XZubkYtTO2n-1" target="Tccu6WXhTYZGS-6htwI7-1">
          <mxGeometry relative="1" as="geometry" />
        </mxCell>
        <mxCell id="j-0Ay29s5XZubkYtTO2n-1" value="Mulai" style="strokeWidth=2;html=1;shape=mxgraph.flowchart.start_1;whiteSpace=wrap;" vertex="1" parent="1">
          <mxGeometry x="364" y="80" width="100" height="60" as="geometry" />
        </mxCell>
        <mxCell id="j-0Ay29s5XZubkYtTO2n-2" value="Selesai" style="strokeWidth=2;html=1;shape=mxgraph.flowchart.start_1;whiteSpace=wrap;" vertex="1" parent="1">
          <mxGeometry x="364" y="570" width="100" height="60" as="geometry" />
        </mxCell>
        <mxCell id="3jWl4t6Rtq9M0hummw_z-3" style="edgeStyle=orthogonalEdgeStyle;rounded=0;orthogonalLoop=1;jettySize=auto;html=1;exitX=0.5;exitY=1;exitDx=0;exitDy=0;" edge="1" parent="1" source="Tccu6WXhTYZGS-6htwI7-1" target="tAEcFKUQjb6ZFp1BkppS-1">
          <mxGeometry relative="1" as="geometry" />
        </mxCell>
        <mxCell id="Tccu6WXhTYZGS-6htwI7-1" value="Mendeklarasikan&lt;div&gt;int Pop(Stack *S, ItemType *x)&lt;/div&gt;" style="verticalLabelPosition=middle;verticalAlign=middle;html=1;shape=hexagon;perimeter=hexagonPerimeter2;arcSize=6;size=0.27;labelPosition=center;align=center;strokeWidth=2;" vertex="1" parent="1">
          <mxGeometry x="301" y="180" width="226" height="90" as="geometry" />
        </mxCell>
        <mxCell id="3jWl4t6Rtq9M0hummw_z-4" style="edgeStyle=orthogonalEdgeStyle;rounded=0;orthogonalLoop=1;jettySize=auto;html=1;exitX=1;exitY=0.5;exitDx=0;exitDy=0;exitPerimeter=0;" edge="1" parent="1" source="tAEcFKUQjb6ZFp1BkppS-1" target="3jWl4t6Rtq9M0hummw_z-1">
          <mxGeometry relative="1" as="geometry" />
        </mxCell>
        <mxCell id="3jWl4t6Rtq9M0hummw_z-5" style="edgeStyle=orthogonalEdgeStyle;rounded=0;orthogonalLoop=1;jettySize=auto;html=1;exitX=0;exitY=0.5;exitDx=0;exitDy=0;exitPerimeter=0;entryX=0.5;entryY=0;entryDx=0;entryDy=0;" edge="1" parent="1" source="tAEcFKUQjb6ZFp1BkppS-1" target="d2936SoTeafCp0J0RcF6-1">
          <mxGeometry relative="1" as="geometry" />
        </mxCell>
        <mxCell id="tAEcFKUQjb6ZFp1BkppS-1" value="S-&amp;gt;Count==0" style="strokeWidth=2;html=1;shape=mxgraph.flowchart.decision;whiteSpace=wrap;" vertex="1" parent="1">
          <mxGeometry x="364" y="310" width="100" height="100" as="geometry" />
        </mxCell>
        <mxCell id="3jWl4t6Rtq9M0hummw_z-16" style="edgeStyle=orthogonalEdgeStyle;rounded=0;orthogonalLoop=1;jettySize=auto;html=1;exitX=0.5;exitY=1;exitDx=0;exitDy=0;" edge="1" parent="1" source="d2936SoTeafCp0J0RcF6-1" target="j-0Ay29s5XZubkYtTO2n-2">
          <mxGeometry relative="1" as="geometry">
            <Array as="points">
              <mxPoint x="284" y="530" />
              <mxPoint x="414" y="530" />
            </Array>
          </mxGeometry>
        </mxCell>
        <mxCell id="d2936SoTeafCp0J0RcF6-1" value="&lt;br&gt;Stack masih&amp;nbsp;&lt;div&gt;kosong!&lt;br&gt;&lt;br&gt;&lt;/div&gt;" style="shape=parallelogram;html=1;strokeWidth=2;perimeter=parallelogramPerimeter;whiteSpace=wrap;rounded=1;arcSize=12;size=0.23;" vertex="1" parent="1">
          <mxGeometry x="204" y="445" width="160" height="50" as="geometry" />
        </mxCell>
        <mxCell id="3jWl4t6Rtq9M0hummw_z-1" value="--(S-&amp;gt;Count);&amp;nbsp;&lt;div&gt;&amp;nbsp;*x = S-&amp;gt;Item[S-&amp;gt;Count];&lt;/div&gt;" style="rounded=1;whiteSpace=wrap;html=1;absoluteArcSize=1;arcSize=14;strokeWidth=2;" vertex="1" parent="1">
          <mxGeometry x="464" y="440" width="156" height="50" as="geometry" />
        </mxCell>
        <mxCell id="3jWl4t6Rtq9M0hummw_z-18" style="edgeStyle=orthogonalEdgeStyle;rounded=0;orthogonalLoop=1;jettySize=auto;html=1;exitX=0.5;exitY=1;exitDx=0;exitDy=0;entryX=0.5;entryY=0;entryDx=0;entryDy=0;entryPerimeter=0;" edge="1" parent="1" source="3jWl4t6Rtq9M0hummw_z-1" target="j-0Ay29s5XZubkYtTO2n-2">
          <mxGeometry relative="1" as="geometry" />
        </mxCell>
      </root>
    </mxGraphModel>
  </diagram>
  <diagram id="wGW8548kOwGelDUActns" name="Pendahuluan 2.4">
    <mxGraphModel dx="1434" dy="784" grid="1" gridSize="10" guides="1" tooltips="1" connect="1" arrows="1" fold="1" page="1" pageScale="1" pageWidth="827" pageHeight="1169" math="0" shadow="0">
      <root>
        <mxCell id="0" />
        <mxCell id="1" parent="0" />
        <mxCell id="zNOGAIjjeXQj6Z5pngnO-13" style="edgeStyle=orthogonalEdgeStyle;rounded=0;orthogonalLoop=1;jettySize=auto;html=1;exitX=0.5;exitY=1;exitDx=0;exitDy=0;exitPerimeter=0;entryX=0.5;entryY=0;entryDx=0;entryDy=0;" edge="1" parent="1" source="zNOGAIjjeXQj6Z5pngnO-1" target="zNOGAIjjeXQj6Z5pngnO-4">
          <mxGeometry relative="1" as="geometry" />
        </mxCell>
        <mxCell id="zNOGAIjjeXQj6Z5pngnO-1" value="Mulai" style="strokeWidth=2;html=1;shape=mxgraph.flowchart.start_1;whiteSpace=wrap;" vertex="1" parent="1">
          <mxGeometry x="364" y="70" width="100" height="60" as="geometry" />
        </mxCell>
        <mxCell id="zNOGAIjjeXQj6Z5pngnO-2" value="Selesai" style="strokeWidth=2;html=1;shape=mxgraph.flowchart.start_1;whiteSpace=wrap;" vertex="1" parent="1">
          <mxGeometry x="364" y="570" width="100" height="60" as="geometry" />
        </mxCell>
        <mxCell id="zNOGAIjjeXQj6Z5pngnO-4" value="Mendeklarasikan fungsi&amp;nbsp;&lt;div&gt;v&lt;span style=&quot;background-color: transparent; color: light-dark(rgb(0, 0, 0), rgb(255, 255, 255));&quot;&gt;oid Push(ItemType x, Stack *S)&lt;/span&gt;&lt;/div&gt;" style="verticalLabelPosition=middle;verticalAlign=middle;html=1;shape=hexagon;perimeter=hexagonPerimeter2;arcSize=6;size=0.27;labelPosition=center;align=center;strokeWidth=2;" vertex="1" parent="1">
          <mxGeometry x="301" y="180" width="226" height="90" as="geometry" />
        </mxCell>
        <mxCell id="zNOGAIjjeXQj6Z5pngnO-8" value="if" style="edgeStyle=orthogonalEdgeStyle;rounded=0;orthogonalLoop=1;jettySize=auto;html=1;exitX=0;exitY=0.5;exitDx=0;exitDy=0;exitPerimeter=0;" edge="1" parent="1" source="zNOGAIjjeXQj6Z5pngnO-5" target="zNOGAIjjeXQj6Z5pngnO-7">
          <mxGeometry x="-0.5618" y="-15" relative="1" as="geometry">
            <mxPoint as="offset" />
          </mxGeometry>
        </mxCell>
        <mxCell id="zNOGAIjjeXQj6Z5pngnO-9" value="else" style="edgeStyle=orthogonalEdgeStyle;rounded=0;orthogonalLoop=1;jettySize=auto;html=1;exitX=1;exitY=0.5;exitDx=0;exitDy=0;exitPerimeter=0;" edge="1" parent="1" source="zNOGAIjjeXQj6Z5pngnO-5" target="zNOGAIjjeXQj6Z5pngnO-6">
          <mxGeometry x="-0.5541" y="15" relative="1" as="geometry">
            <mxPoint as="offset" />
          </mxGeometry>
        </mxCell>
        <mxCell id="zNOGAIjjeXQj6Z5pngnO-5" value="&lt;br&gt;S-&amp;gt;Count==MAXSTACK&lt;div&gt;&lt;br/&gt;&lt;/div&gt;" style="strokeWidth=2;html=1;shape=mxgraph.flowchart.decision;whiteSpace=wrap;" vertex="1" parent="1">
          <mxGeometry x="321" y="320" width="186" height="110" as="geometry" />
        </mxCell>
        <mxCell id="zNOGAIjjeXQj6Z5pngnO-6" value="S-&amp;gt;Item[S-&amp;gt;Count]=x; &lt;br/&gt;++(S-&amp;gt;Count);" style="rounded=1;whiteSpace=wrap;html=1;absoluteArcSize=1;arcSize=14;strokeWidth=2;" vertex="1" parent="1">
          <mxGeometry x="480" y="460" width="180" height="60" as="geometry" />
        </mxCell>
        <mxCell id="zNOGAIjjeXQj6Z5pngnO-7" value="Stack penuh! Data&amp;nbsp;&lt;div&gt;tidak dapat masuk!&lt;/div&gt;" style="shape=parallelogram;html=1;strokeWidth=2;perimeter=parallelogramPerimeter;whiteSpace=wrap;rounded=1;arcSize=12;size=0.23;" vertex="1" parent="1">
          <mxGeometry x="170" y="460" width="189" height="60" as="geometry" />
        </mxCell>
        <mxCell id="zNOGAIjjeXQj6Z5pngnO-10" style="edgeStyle=orthogonalEdgeStyle;rounded=0;orthogonalLoop=1;jettySize=auto;html=1;exitX=0.5;exitY=1;exitDx=0;exitDy=0;entryX=0.5;entryY=0;entryDx=0;entryDy=0;entryPerimeter=0;" edge="1" parent="1" source="zNOGAIjjeXQj6Z5pngnO-6" target="zNOGAIjjeXQj6Z5pngnO-2">
          <mxGeometry relative="1" as="geometry" />
        </mxCell>
        <mxCell id="zNOGAIjjeXQj6Z5pngnO-12" style="edgeStyle=orthogonalEdgeStyle;rounded=0;orthogonalLoop=1;jettySize=auto;html=1;exitX=0.5;exitY=1;exitDx=0;exitDy=0;entryX=0.5;entryY=0;entryDx=0;entryDy=0;entryPerimeter=0;" edge="1" parent="1" source="zNOGAIjjeXQj6Z5pngnO-7" target="zNOGAIjjeXQj6Z5pngnO-2">
          <mxGeometry relative="1" as="geometry" />
        </mxCell>
        <mxCell id="zNOGAIjjeXQj6Z5pngnO-14" style="edgeStyle=orthogonalEdgeStyle;rounded=0;orthogonalLoop=1;jettySize=auto;html=1;exitX=0.5;exitY=1;exitDx=0;exitDy=0;entryX=0.5;entryY=0;entryDx=0;entryDy=0;entryPerimeter=0;" edge="1" parent="1" source="zNOGAIjjeXQj6Z5pngnO-4" target="zNOGAIjjeXQj6Z5pngnO-5">
          <mxGeometry relative="1" as="geometry" />
        </mxCell>
      </root>
    </mxGraphModel>
  </diagram>
  <diagram name="Pendahuluan 2.3" id="4R-HrmgpxU0iqyWfIITO">
    <mxGraphModel dx="1434" dy="784" grid="1" gridSize="10" guides="1" tooltips="1" connect="1" arrows="1" fold="1" page="1" pageScale="1" pageWidth="827" pageHeight="1169" math="0" shadow="0">
      <root>
        <mxCell id="0" />
        <mxCell id="1" parent="0" />
        <mxCell id="EMJQFVqwyDFfsKnRiqIg-8" style="edgeStyle=orthogonalEdgeStyle;rounded=0;orthogonalLoop=1;jettySize=auto;html=1;exitX=0.5;exitY=1;exitDx=0;exitDy=0;exitPerimeter=0;entryX=0.5;entryY=0;entryDx=0;entryDy=0;" edge="1" parent="1" source="ncvVdgm2J6pMdWb3FbdO-1" target="CVLb7rZrXIpQwJcfU0m_-1">
          <mxGeometry relative="1" as="geometry" />
        </mxCell>
        <mxCell id="ncvVdgm2J6pMdWb3FbdO-1" value="Mulai" style="strokeWidth=2;html=1;shape=mxgraph.flowchart.start_1;whiteSpace=wrap;" vertex="1" parent="1">
          <mxGeometry x="350" y="177" width="100" height="60" as="geometry" />
        </mxCell>
        <mxCell id="ncvVdgm2J6pMdWb3FbdO-2" value="Selesai" style="strokeWidth=2;html=1;shape=mxgraph.flowchart.start_1;whiteSpace=wrap;" vertex="1" parent="1">
          <mxGeometry x="350" y="720" width="100" height="60" as="geometry" />
        </mxCell>
        <mxCell id="EMJQFVqwyDFfsKnRiqIg-9" style="edgeStyle=orthogonalEdgeStyle;rounded=0;orthogonalLoop=1;jettySize=auto;html=1;exitX=0.5;exitY=1;exitDx=0;exitDy=0;entryX=0.5;entryY=0;entryDx=0;entryDy=0;" edge="1" parent="1" source="CVLb7rZrXIpQwJcfU0m_-1" target="CVLb7rZrXIpQwJcfU0m_-2">
          <mxGeometry relative="1" as="geometry" />
        </mxCell>
        <mxCell id="CVLb7rZrXIpQwJcfU0m_-1" value="Mengdeklarasikan&amp;nbsp;&lt;div&gt;int Full(Stack *S)&lt;/div&gt;" style="verticalLabelPosition=middle;verticalAlign=middle;html=1;shape=hexagon;perimeter=hexagonPerimeter2;arcSize=6;size=0.27;strokeWidth=2;labelPosition=center;align=center;" vertex="1" parent="1">
          <mxGeometry x="315" y="280" width="170" height="80" as="geometry" />
        </mxCell>
        <mxCell id="EMJQFVqwyDFfsKnRiqIg-11" style="edgeStyle=orthogonalEdgeStyle;rounded=0;orthogonalLoop=1;jettySize=auto;html=1;exitX=0.5;exitY=1;exitDx=0;exitDy=0;" edge="1" parent="1" source="CVLb7rZrXIpQwJcfU0m_-2" target="CVLb7rZrXIpQwJcfU0m_-3">
          <mxGeometry relative="1" as="geometry" />
        </mxCell>
        <mxCell id="CVLb7rZrXIpQwJcfU0m_-2" value="Melakukan&lt;div&gt;return (S-&amp;gt;Count == MAXSTACK)&lt;/div&gt;" style="rounded=1;whiteSpace=wrap;html=1;absoluteArcSize=1;arcSize=14;strokeWidth=2;" vertex="1" parent="1">
          <mxGeometry x="305" y="400" width="190" height="60" as="geometry" />
        </mxCell>
        <mxCell id="EMJQFVqwyDFfsKnRiqIg-4" value="else" style="edgeStyle=orthogonalEdgeStyle;rounded=0;orthogonalLoop=1;jettySize=auto;html=1;exitX=1;exitY=0.5;exitDx=0;exitDy=0;exitPerimeter=0;" edge="1" parent="1" source="CVLb7rZrXIpQwJcfU0m_-3" target="EMJQFVqwyDFfsKnRiqIg-2">
          <mxGeometry x="-0.6667" y="10" relative="1" as="geometry">
            <mxPoint as="offset" />
          </mxGeometry>
        </mxCell>
        <mxCell id="EMJQFVqwyDFfsKnRiqIg-5" value="if" style="edgeStyle=orthogonalEdgeStyle;rounded=0;orthogonalLoop=1;jettySize=auto;html=1;exitX=0;exitY=0.5;exitDx=0;exitDy=0;exitPerimeter=0;" edge="1" parent="1" source="CVLb7rZrXIpQwJcfU0m_-3" target="EMJQFVqwyDFfsKnRiqIg-1">
          <mxGeometry x="-0.6667" y="-10" relative="1" as="geometry">
            <mxPoint as="offset" />
          </mxGeometry>
        </mxCell>
        <mxCell id="CVLb7rZrXIpQwJcfU0m_-3" value="return (S-&amp;gt;Count == MAXSTACK)" style="strokeWidth=2;html=1;shape=mxgraph.flowchart.decision;whiteSpace=wrap;" vertex="1" parent="1">
          <mxGeometry x="315" y="500" width="170" height="100" as="geometry" />
        </mxCell>
        <mxCell id="EMJQFVqwyDFfsKnRiqIg-7" style="edgeStyle=orthogonalEdgeStyle;rounded=0;orthogonalLoop=1;jettySize=auto;html=1;exitX=0.5;exitY=1;exitDx=0;exitDy=0;" edge="1" parent="1" source="EMJQFVqwyDFfsKnRiqIg-1">
          <mxGeometry relative="1" as="geometry">
            <mxPoint x="400" y="720" as="targetPoint" />
          </mxGeometry>
        </mxCell>
        <mxCell id="EMJQFVqwyDFfsKnRiqIg-1" value="Stack tidak&amp;nbsp;&lt;div&gt;penuh&lt;/div&gt;" style="shape=parallelogram;html=1;strokeWidth=2;perimeter=parallelogramPerimeter;whiteSpace=wrap;rounded=1;arcSize=12;size=0.23;" vertex="1" parent="1">
          <mxGeometry x="220" y="610" width="130" height="60" as="geometry" />
        </mxCell>
        <mxCell id="EMJQFVqwyDFfsKnRiqIg-2" value="Stack&amp;nbsp;&lt;div&gt;penuh&lt;/div&gt;" style="shape=parallelogram;html=1;strokeWidth=2;perimeter=parallelogramPerimeter;whiteSpace=wrap;rounded=1;arcSize=12;size=0.23;" vertex="1" parent="1">
          <mxGeometry x="450" y="610" width="130" height="60" as="geometry" />
        </mxCell>
        <mxCell id="EMJQFVqwyDFfsKnRiqIg-6" style="edgeStyle=orthogonalEdgeStyle;rounded=0;orthogonalLoop=1;jettySize=auto;html=1;exitX=0.5;exitY=1;exitDx=0;exitDy=0;entryX=0.5;entryY=0;entryDx=0;entryDy=0;entryPerimeter=0;" edge="1" parent="1" source="EMJQFVqwyDFfsKnRiqIg-2" target="ncvVdgm2J6pMdWb3FbdO-2">
          <mxGeometry relative="1" as="geometry" />
        </mxCell>
      </root>
    </mxGraphModel>
  </diagram>
  <diagram id="T5RygqffuGr7okWv3Atg" name="Pendahuluan 2.2">
    <mxGraphModel dx="1434" dy="784" grid="1" gridSize="10" guides="1" tooltips="1" connect="1" arrows="1" fold="1" page="1" pageScale="1" pageWidth="827" pageHeight="1169" math="0" shadow="0">
      <root>
        <mxCell id="0" />
        <mxCell id="1" parent="0" />
        <mxCell id="V6k6VWZKCIhcdogtZNOB-1" style="edgeStyle=orthogonalEdgeStyle;rounded=0;orthogonalLoop=1;jettySize=auto;html=1;exitX=0.5;exitY=1;exitDx=0;exitDy=0;exitPerimeter=0;entryX=0.5;entryY=0;entryDx=0;entryDy=0;" edge="1" parent="1" source="V6k6VWZKCIhcdogtZNOB-2" target="V6k6VWZKCIhcdogtZNOB-5">
          <mxGeometry relative="1" as="geometry" />
        </mxCell>
        <mxCell id="V6k6VWZKCIhcdogtZNOB-2" value="Mulai" style="strokeWidth=2;html=1;shape=mxgraph.flowchart.start_1;whiteSpace=wrap;" vertex="1" parent="1">
          <mxGeometry x="380" y="140" width="100" height="60" as="geometry" />
        </mxCell>
        <mxCell id="V6k6VWZKCIhcdogtZNOB-3" value="Selesai" style="strokeWidth=2;html=1;shape=mxgraph.flowchart.start_1;whiteSpace=wrap;" vertex="1" parent="1">
          <mxGeometry x="380" y="690" width="100" height="60" as="geometry" />
        </mxCell>
        <mxCell id="V6k6VWZKCIhcdogtZNOB-4" style="edgeStyle=orthogonalEdgeStyle;rounded=0;orthogonalLoop=1;jettySize=auto;html=1;exitX=0.5;exitY=1;exitDx=0;exitDy=0;entryX=0.5;entryY=0;entryDx=0;entryDy=0;" edge="1" parent="1" source="V6k6VWZKCIhcdogtZNOB-5" target="V6k6VWZKCIhcdogtZNOB-6">
          <mxGeometry relative="1" as="geometry" />
        </mxCell>
        <mxCell id="V6k6VWZKCIhcdogtZNOB-5" value="Membuat fungsi&amp;nbsp;&lt;div&gt;int Empty(Stack *S)&lt;/div&gt;" style="verticalLabelPosition=middle;verticalAlign=middle;html=1;shape=hexagon;perimeter=hexagonPerimeter2;arcSize=6;size=0.27;strokeWidth=2;labelPosition=center;align=center;" vertex="1" parent="1">
          <mxGeometry x="340" y="240" width="180" height="80" as="geometry" />
        </mxCell>
        <mxCell id="V6k6VWZKCIhcdogtZNOB-6" value="Melakukan proses&amp;nbsp;&lt;div&gt;S-&amp;gt;Count == 0&lt;/div&gt;" style="rounded=1;whiteSpace=wrap;html=1;absoluteArcSize=1;arcSize=14;strokeWidth=2;" vertex="1" parent="1">
          <mxGeometry x="350" y="360" width="160" height="80" as="geometry" />
        </mxCell>
        <mxCell id="V6k6VWZKCIhcdogtZNOB-7" value="else" style="edgeStyle=orthogonalEdgeStyle;rounded=0;orthogonalLoop=1;jettySize=auto;html=1;exitX=1;exitY=0.5;exitDx=0;exitDy=0;exitPerimeter=0;" edge="1" parent="1" source="V6k6VWZKCIhcdogtZNOB-9" target="V6k6VWZKCIhcdogtZNOB-13">
          <mxGeometry x="-0.3453" y="14" relative="1" as="geometry">
            <mxPoint as="offset" />
          </mxGeometry>
        </mxCell>
        <mxCell id="V6k6VWZKCIhcdogtZNOB-8" value="if" style="edgeStyle=orthogonalEdgeStyle;rounded=0;orthogonalLoop=1;jettySize=auto;html=1;exitX=0;exitY=0.5;exitDx=0;exitDy=0;exitPerimeter=0;" edge="1" parent="1" source="V6k6VWZKCIhcdogtZNOB-9" target="V6k6VWZKCIhcdogtZNOB-11">
          <mxGeometry x="-0.3448" y="-14" relative="1" as="geometry">
            <mxPoint as="offset" />
          </mxGeometry>
        </mxCell>
        <mxCell id="V6k6VWZKCIhcdogtZNOB-9" value="S-&amp;gt;Count == 0" style="strokeWidth=2;html=1;shape=mxgraph.flowchart.decision;whiteSpace=wrap;" vertex="1" parent="1">
          <mxGeometry x="380" y="484.5" width="100" height="100" as="geometry" />
        </mxCell>
        <mxCell id="V6k6VWZKCIhcdogtZNOB-10" style="edgeStyle=orthogonalEdgeStyle;rounded=0;orthogonalLoop=1;jettySize=auto;html=1;exitX=0.5;exitY=1;exitDx=0;exitDy=0;entryX=0.5;entryY=0;entryDx=0;entryDy=0;entryPerimeter=0;" edge="1" parent="1" source="V6k6VWZKCIhcdogtZNOB-6" target="V6k6VWZKCIhcdogtZNOB-9">
          <mxGeometry relative="1" as="geometry" />
        </mxCell>
        <mxCell id="V6k6VWZKCIhcdogtZNOB-11" value="Stack kosong" style="shape=parallelogram;html=1;strokeWidth=2;perimeter=parallelogramPerimeter;whiteSpace=wrap;rounded=1;arcSize=12;size=0.23;" vertex="1" parent="1">
          <mxGeometry x="246.67000000000002" y="590" width="133.33" height="60" as="geometry" />
        </mxCell>
        <mxCell id="V6k6VWZKCIhcdogtZNOB-12" style="edgeStyle=orthogonalEdgeStyle;rounded=0;orthogonalLoop=1;jettySize=auto;html=1;exitX=0.5;exitY=1;exitDx=0;exitDy=0;" edge="1" parent="1" source="V6k6VWZKCIhcdogtZNOB-13">
          <mxGeometry relative="1" as="geometry">
            <mxPoint x="430" y="690" as="targetPoint" />
          </mxGeometry>
        </mxCell>
        <mxCell id="V6k6VWZKCIhcdogtZNOB-13" value="Stack&amp;nbsp;&lt;div&gt;tidak kosong&lt;/div&gt;" style="shape=parallelogram;html=1;strokeWidth=2;perimeter=parallelogramPerimeter;whiteSpace=wrap;rounded=1;arcSize=12;size=0.23;" vertex="1" parent="1">
          <mxGeometry x="480" y="590" width="133.33" height="60" as="geometry" />
        </mxCell>
        <mxCell id="V6k6VWZKCIhcdogtZNOB-14" style="edgeStyle=orthogonalEdgeStyle;rounded=0;orthogonalLoop=1;jettySize=auto;html=1;exitX=0.5;exitY=1;exitDx=0;exitDy=0;entryX=0.5;entryY=0;entryDx=0;entryDy=0;entryPerimeter=0;" edge="1" parent="1" source="V6k6VWZKCIhcdogtZNOB-11" target="V6k6VWZKCIhcdogtZNOB-3">
          <mxGeometry relative="1" as="geometry" />
        </mxCell>
      </root>
    </mxGraphModel>
  </diagram>
  <diagram id="8hVOgW1XDtlq40KsWUdC" name="Pendahuluan 2.1">
    <mxGraphModel dx="1434" dy="784" grid="1" gridSize="10" guides="1" tooltips="1" connect="1" arrows="1" fold="1" page="1" pageScale="1" pageWidth="827" pageHeight="1169" math="0" shadow="0">
      <root>
        <mxCell id="0" />
        <mxCell id="1" parent="0" />
        <mxCell id="D5lhGIG9axStlqoGiEeD-1" style="edgeStyle=orthogonalEdgeStyle;rounded=0;orthogonalLoop=1;jettySize=auto;html=1;exitX=0.5;exitY=1;exitDx=0;exitDy=0;exitPerimeter=0;" edge="1" parent="1" source="D5lhGIG9axStlqoGiEeD-2" target="D5lhGIG9axStlqoGiEeD-4">
          <mxGeometry relative="1" as="geometry" />
        </mxCell>
        <mxCell id="D5lhGIG9axStlqoGiEeD-2" value="Mulai" style="strokeWidth=2;html=1;shape=mxgraph.flowchart.start_1;whiteSpace=wrap;" vertex="1" parent="1">
          <mxGeometry x="364" y="80" width="100" height="60" as="geometry" />
        </mxCell>
        <mxCell id="D5lhGIG9axStlqoGiEeD-3" style="edgeStyle=orthogonalEdgeStyle;rounded=0;orthogonalLoop=1;jettySize=auto;html=1;exitX=0.5;exitY=1;exitDx=0;exitDy=0;entryX=0.5;entryY=0;entryDx=0;entryDy=0;" edge="1" parent="1" source="D5lhGIG9axStlqoGiEeD-4" target="D5lhGIG9axStlqoGiEeD-6">
          <mxGeometry relative="1" as="geometry" />
        </mxCell>
        <mxCell id="D5lhGIG9axStlqoGiEeD-4" value="Membuat fungsi&amp;nbsp;&lt;br&gt;InitializeStack(Stack *S)" style="verticalLabelPosition=middle;verticalAlign=middle;shape=hexagon;perimeter=hexagonPerimeter2;arcSize=6;size=0.27;labelPosition=center;align=center;html=1;labelBackgroundColor=none;textShadow=0;whiteSpace=wrap;horizontal=1;strokeWidth=2;" vertex="1" parent="1">
          <mxGeometry x="291" y="180" width="246" height="110" as="geometry" />
        </mxCell>
        <mxCell id="D5lhGIG9axStlqoGiEeD-5" style="edgeStyle=orthogonalEdgeStyle;rounded=0;orthogonalLoop=1;jettySize=auto;html=1;exitX=0.5;exitY=1;exitDx=0;exitDy=0;" edge="1" parent="1" source="D5lhGIG9axStlqoGiEeD-6" target="D5lhGIG9axStlqoGiEeD-7">
          <mxGeometry relative="1" as="geometry" />
        </mxCell>
        <mxCell id="D5lhGIG9axStlqoGiEeD-6" value="Lalu mengatur di dalam fungsi&amp;nbsp;&lt;div&gt;S-&amp;gt;Count = 0&lt;/div&gt;" style="rounded=1;whiteSpace=wrap;html=1;absoluteArcSize=1;arcSize=14;strokeWidth=2;" vertex="1" parent="1">
          <mxGeometry x="311" y="330" width="206" height="100" as="geometry" />
        </mxCell>
        <mxCell id="D5lhGIG9axStlqoGiEeD-7" value="Selesai" style="strokeWidth=2;html=1;shape=mxgraph.flowchart.start_1;whiteSpace=wrap;" vertex="1" parent="1">
          <mxGeometry x="364" y="470" width="100" height="60" as="geometry" />
        </mxCell>
      </root>
    </mxGraphModel>
  </diagram>
  <diagram id="LPOzkD2NLGPMx14WNpLl" name="Latihan 2.1">
    <mxGraphModel dx="1434" dy="784" grid="1" gridSize="10" guides="1" tooltips="1" connect="1" arrows="1" fold="1" page="1" pageScale="1" pageWidth="827" pageHeight="1169" math="0" shadow="0">
      <root>
        <mxCell id="0" />
        <mxCell id="1" parent="0" />
        <mxCell id="bB9VBMKm1kIbd7d5fr_I-13" style="edgeStyle=orthogonalEdgeStyle;rounded=0;orthogonalLoop=1;jettySize=auto;html=1;exitX=0.5;exitY=1;exitDx=0;exitDy=0;exitPerimeter=0;entryX=0.5;entryY=0;entryDx=0;entryDy=0;" edge="1" parent="1" source="bB9VBMKm1kIbd7d5fr_I-1" target="bB9VBMKm1kIbd7d5fr_I-3">
          <mxGeometry relative="1" as="geometry" />
        </mxCell>
        <mxCell id="bB9VBMKm1kIbd7d5fr_I-1" value="Mulai" style="strokeWidth=2;html=1;shape=mxgraph.flowchart.start_1;whiteSpace=wrap;" vertex="1" parent="1">
          <mxGeometry x="380" y="10" width="100" height="60" as="geometry" />
        </mxCell>
        <mxCell id="bB9VBMKm1kIbd7d5fr_I-2" value="Selesai" style="strokeWidth=2;html=1;shape=mxgraph.flowchart.start_1;whiteSpace=wrap;" vertex="1" parent="1">
          <mxGeometry x="532" y="620" width="100" height="60" as="geometry" />
        </mxCell>
        <mxCell id="bB9VBMKm1kIbd7d5fr_I-3" value="Mendeklarasikan&lt;div&gt;stack&amp;lt;char&amp;gt; s&lt;/div&gt;&lt;div&gt;string input = &quot;E A S * Y * Q U E * * *&lt;/div&gt;&lt;div&gt;&amp;nbsp;S T * * * I O * N * * *&quot;&lt;/div&gt;" style="verticalLabelPosition=middle;verticalAlign=middle;html=1;shape=hexagon;perimeter=hexagonPerimeter2;arcSize=6;size=0.27;strokeWidth=2;labelPosition=center;align=center;" vertex="1" parent="1">
          <mxGeometry x="269" y="120" width="322" height="70" as="geometry" />
        </mxCell>
        <mxCell id="bB9VBMKm1kIbd7d5fr_I-16" value="else" style="edgeStyle=orthogonalEdgeStyle;rounded=0;orthogonalLoop=1;jettySize=auto;html=1;exitX=0.5;exitY=1;exitDx=0;exitDy=0;exitPerimeter=0;entryX=0.5;entryY=0;entryDx=0;entryDy=0;" edge="1" parent="1" source="bB9VBMKm1kIbd7d5fr_I-4" target="bB9VBMKm1kIbd7d5fr_I-9">
          <mxGeometry x="-0.2" y="-20" relative="1" as="geometry">
            <mxPoint as="offset" />
          </mxGeometry>
        </mxCell>
        <mxCell id="bB9VBMKm1kIbd7d5fr_I-17" value="if" style="edgeStyle=orthogonalEdgeStyle;rounded=0;orthogonalLoop=1;jettySize=auto;html=1;exitX=0;exitY=0.5;exitDx=0;exitDy=0;exitPerimeter=0;entryX=0.5;entryY=0;entryDx=0;entryDy=0;" edge="1" parent="1" source="bB9VBMKm1kIbd7d5fr_I-4" target="bB9VBMKm1kIbd7d5fr_I-5">
          <mxGeometry x="-0.5238" y="-10" relative="1" as="geometry">
            <mxPoint as="offset" />
          </mxGeometry>
        </mxCell>
        <mxCell id="bB9VBMKm1kIbd7d5fr_I-21" style="edgeStyle=orthogonalEdgeStyle;rounded=0;orthogonalLoop=1;jettySize=auto;html=1;exitX=1;exitY=0.5;exitDx=0;exitDy=0;exitPerimeter=0;" edge="1" parent="1" source="bB9VBMKm1kIbd7d5fr_I-4" target="bB9VBMKm1kIbd7d5fr_I-2">
          <mxGeometry relative="1" as="geometry" />
        </mxCell>
        <UserObject label="i &lt; input.size()" link="i &lt; input.size()" id="bB9VBMKm1kIbd7d5fr_I-4">
          <mxCell style="strokeWidth=2;html=1;shape=mxgraph.flowchart.decision;whiteSpace=wrap;" vertex="1" parent="1">
            <mxGeometry x="380" y="240" width="100" height="100" as="geometry" />
          </mxCell>
        </UserObject>
        <mxCell id="bB9VBMKm1kIbd7d5fr_I-18" style="edgeStyle=orthogonalEdgeStyle;rounded=0;orthogonalLoop=1;jettySize=auto;html=1;exitX=0.5;exitY=1;exitDx=0;exitDy=0;entryX=0.5;entryY=0;entryDx=0;entryDy=0;" edge="1" parent="1" source="bB9VBMKm1kIbd7d5fr_I-5" target="bB9VBMKm1kIbd7d5fr_I-6">
          <mxGeometry relative="1" as="geometry" />
        </mxCell>
        <mxCell id="bB9VBMKm1kIbd7d5fr_I-5" value="input[i] == &#39;*&#39;" style="rounded=1;whiteSpace=wrap;html=1;absoluteArcSize=1;arcSize=14;strokeWidth=2;" vertex="1" parent="1">
          <mxGeometry x="220" y="390" width="100" height="50" as="geometry" />
        </mxCell>
        <mxCell id="bB9VBMKm1kIbd7d5fr_I-19" style="edgeStyle=orthogonalEdgeStyle;rounded=0;orthogonalLoop=1;jettySize=auto;html=1;exitX=0.5;exitY=1;exitDx=0;exitDy=0;entryX=0.5;entryY=0;entryDx=0;entryDy=0;" edge="1" parent="1" source="bB9VBMKm1kIbd7d5fr_I-6" target="bB9VBMKm1kIbd7d5fr_I-8">
          <mxGeometry relative="1" as="geometry" />
        </mxCell>
        <mxCell id="bB9VBMKm1kIbd7d5fr_I-6" value="cout &lt;&lt; s.top() &lt;&lt; &quot; &quot;;" style="shape=parallelogram;html=1;strokeWidth=2;perimeter=parallelogramPerimeter;whiteSpace=wrap;rounded=1;arcSize=12;size=0.23;" vertex="1" parent="1">
          <mxGeometry x="185" y="500" width="170" height="50" as="geometry" />
        </mxCell>
        <mxCell id="bB9VBMKm1kIbd7d5fr_I-8" value="s.pop();" style="rounded=1;whiteSpace=wrap;html=1;absoluteArcSize=1;arcSize=14;strokeWidth=2;" vertex="1" parent="1">
          <mxGeometry x="220" y="610" width="100" height="50" as="geometry" />
        </mxCell>
        <mxCell id="bB9VBMKm1kIbd7d5fr_I-20" style="edgeStyle=orthogonalEdgeStyle;rounded=0;orthogonalLoop=1;jettySize=auto;html=1;exitX=0.5;exitY=1;exitDx=0;exitDy=0;entryX=0.5;entryY=0;entryDx=0;entryDy=0;" edge="1" parent="1" source="bB9VBMKm1kIbd7d5fr_I-9" target="bB9VBMKm1kIbd7d5fr_I-10">
          <mxGeometry relative="1" as="geometry" />
        </mxCell>
        <mxCell id="bB9VBMKm1kIbd7d5fr_I-9" value="input[i] != &#39; &#39;" style="rounded=1;whiteSpace=wrap;html=1;absoluteArcSize=1;arcSize=14;strokeWidth=2;" vertex="1" parent="1">
          <mxGeometry x="380" y="390" width="100" height="50" as="geometry" />
        </mxCell>
        <mxCell id="bB9VBMKm1kIbd7d5fr_I-25" style="edgeStyle=orthogonalEdgeStyle;rounded=0;orthogonalLoop=1;jettySize=auto;html=1;exitX=0.5;exitY=1;exitDx=0;exitDy=0;entryX=0.138;entryY=0.98;entryDx=0;entryDy=0;entryPerimeter=0;" edge="1" parent="1">
          <mxGeometry relative="1" as="geometry">
            <mxPoint x="81.03999999999996" y="550" as="targetPoint" />
            <mxPoint x="430" y="551" as="sourcePoint" />
            <Array as="points">
              <mxPoint x="430" y="686" />
              <mxPoint x="81" y="686" />
            </Array>
          </mxGeometry>
        </mxCell>
        <mxCell id="bB9VBMKm1kIbd7d5fr_I-10" value="s.push(input[i]);" style="rounded=1;whiteSpace=wrap;html=1;absoluteArcSize=1;arcSize=14;strokeWidth=2;" vertex="1" parent="1">
          <mxGeometry x="380" y="500" width="100" height="50" as="geometry" />
        </mxCell>
        <mxCell id="bB9VBMKm1kIbd7d5fr_I-30" style="edgeStyle=orthogonalEdgeStyle;rounded=0;orthogonalLoop=1;jettySize=auto;html=1;exitX=0.5;exitY=0;exitDx=0;exitDy=0;entryX=0.236;entryY=0.263;entryDx=0;entryDy=0;entryPerimeter=0;" edge="1" parent="1" source="bB9VBMKm1kIbd7d5fr_I-12" target="bB9VBMKm1kIbd7d5fr_I-4">
          <mxGeometry relative="1" as="geometry">
            <mxPoint x="403" y="271" as="targetPoint" />
            <mxPoint x="110" y="500" as="sourcePoint" />
            <Array as="points">
              <mxPoint x="110" y="240" />
              <mxPoint x="404" y="240" />
            </Array>
          </mxGeometry>
        </mxCell>
        <mxCell id="bB9VBMKm1kIbd7d5fr_I-12" value="i++" style="rounded=1;whiteSpace=wrap;html=1;absoluteArcSize=1;arcSize=14;strokeWidth=2;" vertex="1" parent="1">
          <mxGeometry x="70" y="530" width="80" height="50" as="geometry" />
        </mxCell>
        <mxCell id="bB9VBMKm1kIbd7d5fr_I-15" style="edgeStyle=orthogonalEdgeStyle;rounded=0;orthogonalLoop=1;jettySize=auto;html=1;exitX=0.5;exitY=1;exitDx=0;exitDy=0;entryX=0.5;entryY=0;entryDx=0;entryDy=0;entryPerimeter=0;" edge="1" parent="1" source="bB9VBMKm1kIbd7d5fr_I-3" target="bB9VBMKm1kIbd7d5fr_I-4">
          <mxGeometry relative="1" as="geometry" />
        </mxCell>
        <mxCell id="bB9VBMKm1kIbd7d5fr_I-27" style="edgeStyle=orthogonalEdgeStyle;rounded=0;orthogonalLoop=1;jettySize=auto;html=1;exitX=0;exitY=0.5;exitDx=0;exitDy=0;entryX=0.5;entryY=1;entryDx=0;entryDy=0;" edge="1" parent="1" source="bB9VBMKm1kIbd7d5fr_I-8" target="bB9VBMKm1kIbd7d5fr_I-12">
          <mxGeometry relative="1" as="geometry">
            <mxPoint x="109" y="600" as="targetPoint" />
            <Array as="points">
              <mxPoint x="109" y="635" />
              <mxPoint x="109" y="580" />
            </Array>
          </mxGeometry>
        </mxCell>
      </root>
    </mxGraphModel>
  </diagram>
</mxfile>
